<svg width="18" height="18" viewBox="0 0 18 18" fill="none" xmlns="http://www.w3.org/2000/svg">
<path d="M16.6381 8.87696L9.39766 1.6418C9.34552 1.58957 9.2836 1.54812 9.21543 1.51985C9.14726 1.49157 9.07419 1.47702 9.00039 1.47702C8.92659 1.47702 8.85352 1.49157 8.78535 1.51985C8.71718 1.54812 8.65526 1.58957 8.60312 1.6418L1.3627 8.87696C1.15176 9.08789 1.03223 9.37442 1.03223 9.67325C1.03223 10.2938 1.53672 10.7982 2.15723 10.7982H2.92012V15.9609C2.92012 16.2721 3.17148 16.5234 3.48262 16.5234H7.87539V12.5859H9.84414V16.5234H14.5182C14.8293 16.5234 15.0807 16.2721 15.0807 15.9609V10.7982H15.8436C16.1424 10.7982 16.4289 10.6805 16.6398 10.4678C17.0775 10.0283 17.0775 9.31641 16.6381 8.87696V8.87696Z" fill="white"/>
</svg>
