<svg width="40" height="40" viewBox="0 0 40 40" fill="none" xmlns="http://www.w3.org/2000/svg">
<path d="M20 2.5C10.3359 2.5 2.5 10.3359 2.5 20C2.5 29.6641 10.3359 37.5 20 37.5C29.6641 37.5 37.5 29.6641 37.5 20C37.5 10.3359 29.6641 2.5 20 2.5ZM20.8711 28.4844L20.8789 29.7227C20.8789 29.8945 20.7383 30.0391 20.5664 30.0391H19.457C19.2852 30.0391 19.1445 29.8984 19.1445 29.7266V28.5C15.6758 28.2422 14.043 26.2656 13.8672 24.1172C13.8516 23.9336 13.9961 23.7773 14.1797 23.7773H15.9844C16.1367 23.7773 16.2695 23.8867 16.293 24.0352C16.4922 25.2734 17.457 26.1992 19.1875 26.4297V20.8555L18.2227 20.6094C16.1797 20.1211 14.2344 18.8477 14.2344 16.207C14.2344 13.3594 16.3984 11.8281 19.1641 11.5586V10.2695C19.1641 10.0977 19.3047 9.95703 19.4766 9.95703H20.5742C20.7461 9.95703 20.8867 10.0977 20.8867 10.2695V11.5469C23.5625 11.8164 25.5703 13.3789 25.8047 15.8125C25.8242 15.9961 25.6797 16.1562 25.4922 16.1562H23.7383C23.582 16.1562 23.4492 16.0391 23.4297 15.8867C23.2734 14.7461 22.3594 13.8164 20.8711 13.6133V18.8594L21.8633 19.0898C24.3945 19.7148 26.1172 20.9258 26.1172 23.6367C26.1172 26.5781 23.9297 28.2188 20.8711 28.4844ZM16.6641 16.0273C16.6641 17.0195 17.2773 17.7891 18.5977 18.2656C18.7812 18.3398 18.9648 18.3984 19.1836 18.4609V13.6172C17.7422 13.8008 16.6641 14.6094 16.6641 16.0273ZM21.2148 21.3086C21.1055 21.2852 20.9961 21.2578 20.8711 21.2227V26.4453C22.5352 26.2969 23.6836 25.3828 23.6836 23.8516C23.6836 22.6523 23.0625 21.8711 21.2148 21.3086Z" fill="white"/>
</svg>
