<svg width="41" height="41" viewBox="0 0 41 41" fill="none" xmlns="http://www.w3.org/2000/svg">
<path fill-rule="evenodd" clip-rule="evenodd" d="M27.2159 2.5625C26.8761 2.5625 26.5502 2.42751 26.3099 2.18723C26.0696 1.94695 25.9346 1.62106 25.9346 1.28125C25.9346 0.941441 26.0696 0.61555 26.3099 0.375269C26.5502 0.134988 26.8761 0 27.2159 0L37.4659 0C37.8057 0 38.1316 0.134988 38.3719 0.375269C38.6122 0.61555 38.7471 0.941441 38.7471 1.28125V11.5312C38.7471 11.8711 38.6122 12.1969 38.3719 12.4372C38.1316 12.6775 37.8057 12.8125 37.4659 12.8125C37.1261 12.8125 36.8002 12.6775 36.5599 12.4372C36.3196 12.1969 36.1846 11.8711 36.1846 11.5312V4.37419L27.344 13.2148C28.1058 14.6808 28.5018 16.3092 28.4985 17.9613C28.4952 19.6134 28.0927 21.2402 27.3251 22.7032C26.5575 24.1661 25.4476 25.4218 24.0901 26.3634C22.7326 27.3049 21.1676 27.9043 19.5284 28.1106V33.3125H23.3721C23.7119 33.3125 24.0378 33.4475 24.2781 33.6878C24.5184 33.9281 24.6534 34.2539 24.6534 34.5938C24.6534 34.9336 24.5184 35.2594 24.2781 35.4997C24.0378 35.74 23.7119 35.875 23.3721 35.875H19.5284V39.7188C19.5284 40.0586 19.3934 40.3844 19.1531 40.6247C18.9128 40.865 18.5869 41 18.2471 41C17.9073 41 17.5814 40.865 17.3412 40.6247C17.1009 40.3844 16.9659 40.0586 16.9659 39.7188V35.875H13.1221C12.7823 35.875 12.4564 35.74 12.2162 35.4997C11.9759 35.2594 11.8409 34.9336 11.8409 34.5938C11.8409 34.2539 11.9759 33.9281 12.2162 33.6878C12.4564 33.4475 12.7823 33.3125 13.1221 33.3125H16.9659V28.1106C15.3255 27.9035 13.7595 27.3026 12.4016 26.3592C11.0438 25.4158 9.93426 24.1579 9.1678 22.6928C8.40134 21.2278 8.00068 19.599 8 17.9456C7.99932 16.2922 8.39864 14.6631 9.1639 13.1974C9.92915 11.7317 11.0376 10.4729 12.3947 9.5284C13.7518 8.58388 15.3173 7.98169 16.9575 7.77319C18.5978 7.5647 20.2641 7.75611 21.8143 8.33107C23.3646 8.90604 24.7527 9.8475 25.8603 11.0751L34.373 2.5625H27.2159ZM24.6611 13.6991C23.5366 11.998 21.7825 10.8133 19.7846 10.4056C17.7867 9.9978 15.7086 10.4004 14.0075 11.5248C12.3064 12.6493 11.1217 14.4034 10.7139 16.4013C10.3062 18.3993 10.7088 20.4774 11.8332 22.1784C12.958 23.8795 14.7124 25.0641 16.7106 25.4716C18.7088 25.8792 20.787 25.4762 22.4881 24.3514C24.1892 23.2267 25.3738 21.4722 25.7813 19.474C26.1888 17.4759 25.7858 15.3976 24.6611 13.6966V13.6991Z" fill="white"/>
</svg>
