<svg width="64" height="64" viewBox="0 0 64 64" fill="none" xmlns="http://www.w3.org/2000/svg">
<path d="M62 29.1672L61.673 27.9542C61.583 27.6252 59.879 21.5452 54.966 18.8252C59.441 15.2242 60.419 10.7062 60.468 10.4682L60.737 9.14922L59.654 8.39622C59.363 8.19422 56.672 6.41422 52.117 6.41422C48.439 6.41422 44.629 7.57422 40.791 9.86222C37.094 12.0662 36.197 15.5652 35.406 18.6512C34.4 22.5832 33.582 25.7072 27.6 27.1332C27.1108 27.0726 26.623 27.0009 26.137 26.9182L28.261 24.9182C28.261 24.9182 23.605 26.4182 21.849 24.9212C21.749 24.8362 21.638 24.6512 21.646 24.2542C21.662 23.5282 22.638 16.9982 22.64 15.1062C26.805 14.1302 28.859 9.83522 27.087 8.75522C25.836 7.99122 24.263 9.97422 21.351 10.6142C21.378 10.2312 21.386 9.82422 21.345 9.37222C21.118 6.84622 24.68 5.86922 24.248 4.56722C23.687 2.87822 19.104 3.92022 16.901 7.63822C16.6344 8.09774 16.4293 8.59029 16.291 9.10322C16.189 8.70542 16.0542 8.31676 15.888 7.94122C14.863 5.63122 18.064 3.54322 17.085 2.41922C15.79 0.933217 12.022 3.55422 11.136 7.81222C10.9612 8.70513 10.9851 9.62557 11.206 10.5082C11.118 10.4312 11.045 10.3552 10.949 10.2772C9.321 8.97922 10.976 6.22922 9.755 5.72122C8.015 4.99422 6.441 8.57122 7.389 12.0682C7.589 12.8042 7.995 13.5412 8.515 14.1042C5.233 14.4752 2.811 17.6342 2.704 17.7782L2 18.7122L3.141 18.5812C3.154 18.5792 3.42 18.5512 3.83 18.5512C4.403 18.5512 5.189 18.6192 5.962 18.8512C4.881 19.9952 3.867 21.3872 3.232 23.0182C1.767 26.7762 5.092 24.8292 5.769 24.9112C5.769 24.9112 6.09 25.3732 6.494 25.6812C6.49 25.9062 6.473 26.1172 6.473 26.3462C6.473 29.2792 7.08 37.7592 7.106 38.1182L7.288 40.6422L8.796 38.7112C11.471 46.4742 17.685 52.8572 24.976 54.4822C25.886 55.6012 27.296 56.7802 28.895 57.2792C26.445 60.7642 21.911 61.1092 21.911 62.0002H35.797C35.797 61.0792 33.329 61.2992 31.633 57.3022C33.367 56.7172 34.936 55.0002 35.971 53.2892C40.534 51.2282 44.386 47.3482 46.897 42.6582C49.534 43.5412 51.807 43.6662 51.991 43.6742L53.442 43.7372L53.909 42.3182C53.985 42.0882 55.487 37.4392 54.874 32.9932C58.536 32.2602 60.962 30.1052 61.083 29.9962L62 29.1672ZM6.749 18.0712C5.869 17.7212 4.946 17.5882 4.215 17.5582C5.173 16.5902 6.964 15.1302 9.023 15.0752C8.703 15.6362 8.408 16.2412 8.139 16.8902C7.693 17.2342 7.223 17.6292 6.749 18.0712ZM8.412 26.3452C8.412 20.8872 9.747 17.0392 11.656 14.6292C11.724 14.5752 11.795 14.5252 11.863 14.4612C12.411 13.9462 13.769 13.1352 14.595 12.9072C15.211 12.7382 16.757 12.8062 17.727 13.4942C18.619 14.1312 19.274 15.2472 20.576 15.3022C20.617 15.3042 20.655 15.2982 20.696 15.2992C20.659 17.1142 19.726 23.3542 19.708 24.2092C19.689 25.0502 19.951 25.7792 20.464 26.3192C20.884 26.7612 21.456 27.0682 22.174 27.2372L20.015 28.7192L21.786 30.8662L17.182 30.3732L17.866 34.4702L13.684 31.3662L13.108 36.0952L10.692 33.0962L8.868 35.4322C8.68 32.6162 8.412 28.2242 8.412 26.3452ZM34.928 51.5732L34.631 51.7022L34.467 51.9882C33.275 54.0732 31.614 55.5282 30.43 55.5282C29.109 55.5282 27.404 54.4742 26.283 52.9672L26.059 52.6662L25.699 52.5932C18.541 51.1552 12.463 44.6442 10.238 36.8642L10.715 36.2552L14.474 40.9202L15.201 34.9552L20.581 38.9512L19.528 32.6362L26.044 33.3352C23.46 35.3162 22.228 38.3112 22.797 41.4232C23.462 45.0522 26.429 47.7492 30.355 48.2952C31.263 48.4212 32.162 48.4842 33.029 48.4842C39.801 48.4842 43.006 44.6752 43.138 44.5122L43.515 44.0532L43.298 43.4942C42.769 42.1302 41.696 41.0982 40.814 40.4332C42.806 38.8042 43.965 36.5992 44.023 36.4882L44.519 35.5322L43.555 35.0992C42.591 34.6662 40.234 34.3572 38.499 34.1772C38.8665 33.6738 39.2073 33.1514 39.52 32.6122L40.173 31.4632L38.919 31.1392C38.849 31.1202 37.176 30.6952 34.838 30.6952C31.934 30.6952 29.353 31.3302 27.168 32.5832C26.842 32.7712 26.545 32.9822 26.25 33.1972L22.904 29.1372L23.785 28.5332C25.826 28.9022 27.588 29.2212 28.699 29.2212C32.836 29.2212 36.72 28.0112 39.842 27.0382C42.064 26.3472 43.983 25.7482 45.392 25.7482C46.399 25.7482 48.084 25.7482 48.084 30.5592C48.083 39.4462 42.55 48.2832 34.928 51.5732ZM36.469 36.0042C37.925 36.1142 40.193 36.3532 41.635 36.6302C40.993 37.5492 39.928 38.8312 38.561 39.5822L36.873 40.5122L38.6 41.3672C38.62 41.3772 40.348 42.2462 41.213 43.6692C40.226 44.5672 37.585 46.4842 33.027 46.4842C32.246 46.4842 31.434 46.4262 30.613 46.3122C26.869 45.7912 25.105 43.2532 24.701 41.0502C24.215 38.3912 25.52 35.8162 28.11 34.3302C30.004 33.2452 32.267 32.6942 34.838 32.6942C35.693 32.6942 36.451 32.7582 37.049 32.8342C36.718 33.3022 36.305 33.8342 35.854 34.3002L34.361 35.8442L36.469 36.0042ZM52.462 31.2342C54.065 35.6212 52.071 41.6752 52.071 41.6752C52.071 41.6752 50.098 41.5852 47.775 40.8562C49.21 37.6262 50.022 34.0962 50.022 30.5592C50.022 27.6362 49.542 23.7482 45.39 23.7482C43.694 23.7482 41.649 24.3862 39.28 25.1232C37.403 25.7082 35.376 26.3342 33.232 26.7492C38.633 22.5042 35.954 15.0552 41.76 11.5922C45.864 9.14622 49.377 8.41322 52.115 8.41322C56.209 8.41322 58.568 10.0542 58.568 10.0542C58.568 10.0542 57.268 16.4082 49.925 19.5302C57.399 19.5952 59.802 28.4912 59.802 28.4912C59.802 28.4912 56.767 31.2342 52.462 31.2342Z" fill="white"/>
<path d="M6.90488 16.6749C7.26387 16.6749 7.55488 16.529 7.55488 16.3489C7.55488 16.1689 7.26387 16.0229 6.90488 16.0229C6.5459 16.0229 6.25488 16.1689 6.25488 16.3489C6.25488 16.529 6.5459 16.6749 6.90488 16.6749Z" fill="white"/>
<path d="M12.335 18.1748C13.1634 18.1748 13.835 17.5032 13.835 16.6748C13.835 15.8464 13.1634 15.1748 12.335 15.1748C11.5065 15.1748 10.835 15.8464 10.835 16.6748C10.835 17.5032 11.5065 18.1748 12.335 18.1748Z" fill="white"/>
</svg>
