<svg width="28" height="28" viewBox="0 0 28 28" fill="none" xmlns="http://www.w3.org/2000/svg">
<path d="M25.3369 4.44281C27.2816 2.95925 27.6277 0.875 26.4342 0.875C25.5618 0.875 23.8652 1.99062 21.3688 5.26531C21.8562 2.17525 20.9278 1.33919 19.8629 3.17669C17.6203 7.04637 13.6378 9.69631 12.4924 12.5991C12.4324 12.6849 12.3659 12.7693 12.3139 12.8568C11.3116 12.3791 10.2913 12.0999 9.27238 12.0999C8.12525 12.0999 7.26862 12.7483 6.93787 13.4378L6.20156 14.0022C6.02656 13.6019 5.82662 13.2151 5.60612 12.8441C5.4733 12.6187 5.33427 12.3969 5.18919 12.1791C5.40094 12.0203 6.47587 11.1685 6.34944 10.3014C6.20812 9.34062 6.19194 9.24437 6.2125 8.74081C6.2125 8.74081 5.11481 9.19012 5.33225 10.4313C5.51512 11.4778 5.26225 12.0172 5.17781 12.1625C4.92202 11.7776 4.64586 11.4067 4.3505 11.0512C4.59681 10.6789 5.22244 9.62544 4.91663 8.92587C4.5395 8.06356 4.49969 7.97781 4.39294 7.49C4.39294 7.49 3.46106 8.32825 3.98125 9.42856C4.33475 10.178 4.33344 10.7161 4.29712 10.9874C4.01847 10.6551 3.72014 10.3398 3.40375 10.0432C3.2165 9.54625 2.76587 8.5505 2.163 8.55137C1.36019 8.55181 1.27969 8.55531 0.875 8.44287C0.875 8.44287 1.04825 9.835 2.09169 9.79125C2.68713 9.76631 3.05594 9.94087 3.26725 10.0957C3.58925 10.4326 3.90469 10.7887 4.18863 11.172C4.20788 11.1974 4.22494 11.2249 4.24375 11.2499C3.83862 11.1908 2.80525 11.1125 2.4815 11.7836C2.0755 12.6267 2.03744 12.7129 1.75175 13.0804C1.75175 13.0804 2.828 13.6032 3.32456 12.4876C3.68812 11.6734 4.09763 11.4061 4.29363 11.3199C4.51238 11.6117 4.72019 11.914 4.9175 12.2272C4.48744 12.3406 3.56519 12.6652 3.43787 13.3945C3.27075 14.3491 3.25675 14.4462 3.08175 14.9026C3.08175 14.9026 4.23763 14.9879 4.4205 13.7384C4.53906 12.9312 4.80331 12.5182 4.97612 12.3252C5.1135 12.5475 5.25262 12.7689 5.37775 13.0016C5.58731 13.3919 5.76975 13.7948 5.93338 14.2078L5.08244 14.8601L6.12981 14.7315C6.47631 15.7237 6.71913 16.7659 6.92081 17.8251L6.95275 17.8233C6.99913 16.7256 6.81231 15.673 6.46931 14.6895L7.23712 14.595C7.60069 14.8619 8.07713 15.1156 8.239 15.3418C8.75306 16.0619 7.22881 18.9551 15.19 20.8119C19.9189 21.9148 18.5771 25.5977 20.2156 26.8222C20.5091 27.041 20.7655 27.1246 20.9843 27.1246C21.6729 27.1246 22.0006 26.3051 22.0006 26.3051C22.4446 26.4727 22.7889 26.5409 23.0558 26.5409C24.3084 26.5409 23.8451 25.0241 23.8451 25.0241C24.1749 25.1335 24.4261 25.1794 24.6146 25.1794C25.6274 25.1794 24.8461 23.8551 24.8461 23.8551C24.8461 23.8551 26.1656 23.4802 25.5496 22.5982C24.6912 21.3675 21.8321 22.3991 20.1386 20.1609C19.5248 19.3464 18.8836 18.5529 18.2162 17.7817C19.9609 17.1596 23.3139 16.9347 21.4633 15.4844C21.4633 15.4844 25.34 14.4091 22.5851 13.3831C22.5851 13.3831 28.0621 11.9271 23.9054 11.1239C23.9054 11.1239 29.2499 8.47 24.2843 8.20531C24.2839 8.20619 29.8598 5.26137 25.3369 4.44281ZM23.9772 7.62606L21.8811 8.73556L24.2493 8.862C25.1221 8.90837 25.5163 9.02562 25.6821 9.09912C25.431 9.4465 24.5258 10.0831 23.6128 10.5376L21.8763 11.4017L23.7803 11.7696C24.1255 11.8361 24.367 11.9017 24.5341 11.9577C24.0782 12.2097 23.2295 12.5339 22.4162 12.7505L20.4256 13.2807L22.3558 13.9996C22.5702 14.0796 22.7115 14.1496 22.8025 14.2034C22.5155 14.4091 21.8759 14.6891 21.287 14.8531L20.0371 15.2018L21.0582 16.002C21.1588 16.0807 21.2266 16.1442 21.2717 16.1923C20.9291 16.3905 20.0533 16.6071 19.5011 16.7436C18.9823 16.8717 18.4459 17.0043 17.9957 17.1649L17.0901 17.4877L17.7205 18.2131C18.3781 18.9731 19.0099 19.7551 19.6149 20.5577C20.7458 22.0522 22.3392 22.2985 23.5021 22.4787C24.2016 22.5864 24.8054 22.6796 25.011 22.9753C25.0254 22.9959 25.0359 23.0129 25.0425 23.0256C24.9734 23.0921 24.8019 23.1844 24.6663 23.2247L23.8486 23.457L24.2804 24.1894C24.3307 24.2747 24.3854 24.3946 24.4239 24.5031C24.2972 24.4778 24.1724 24.4442 24.0503 24.4024L22.8633 24.0135L23.2155 25.214C23.2916 25.4712 23.2864 25.8002 23.2273 25.8576C23.2199 25.8637 23.17 25.8856 23.0549 25.8856C22.9136 25.8856 22.6564 25.8523 22.2307 25.6926L21.6383 25.4765L21.3924 26.0566C21.3465 26.1669 21.1628 26.4692 20.9829 26.4692C20.9287 26.4692 20.8075 26.4469 20.6071 26.2972C20.2099 25.9997 20.034 25.3811 19.8306 24.6636C19.3887 23.1083 18.7836 20.9772 15.3379 20.1736C9.35506 18.7779 9.15162 16.9072 9.04225 15.9018C9.00506 15.5606 8.97006 15.2381 8.77187 14.9607C8.59206 14.7087 8.29194 14.5123 7.97431 14.3045C7.81637 14.2008 7.56787 14.0385 7.45456 13.9304C7.54862 13.4794 8.18825 12.7562 9.27194 12.7562C10.1378 12.7562 11.0661 12.9894 12.0308 13.4492L12.5689 13.7056L12.8756 13.195C13.5712 12.0369 15.1458 10.9987 16.814 9.89975C18.6462 8.69181 20.5415 7.44319 21.8264 5.74656C24.3477 2.41894 25.9096 1.53125 26.4342 1.53125C26.4438 1.53125 26.4521 1.53125 26.4591 1.53212C26.5462 1.79375 26.2736 2.90281 24.9388 3.92131L23.7563 4.82344L25.2201 5.08856C26.2994 5.28369 26.4499 5.55669 26.4499 5.55756C26.495 5.87562 25.3628 6.89281 23.9772 7.62606Z" fill="white"/>
<path d="M8.75509 13.9742C9.01895 13.9742 9.23284 13.7603 9.23284 13.4964C9.23284 13.2326 9.01895 13.0187 8.75509 13.0187C8.49124 13.0187 8.27734 13.2326 8.27734 13.4964C8.27734 13.7603 8.49124 13.9742 8.75509 13.9742Z" fill="white"/>
</svg>
