<svg width="21" height="21" viewBox="0 0 21 21" fill="none" xmlns="http://www.w3.org/2000/svg">
<path d="M13.2908 7.55508C12.8537 7.55508 12.502 7.99412 12.502 8.5388C12.502 9.0848 12.8537 9.52383 13.2908 9.52383C13.7252 9.52383 14.077 9.0848 14.077 8.5388C14.077 7.99412 13.7252 7.55508 13.2908 7.55508ZM7.71034 7.55508C7.27623 7.55508 6.92383 7.99379 6.92383 8.5388C6.92383 9.0848 7.27623 9.52383 7.71034 9.52383C8.14708 9.52383 8.49883 9.0848 8.49883 8.5388C8.49883 7.99379 8.14708 7.55508 7.71034 7.55508Z" fill="white"/>
<path d="M20.3438 4.85395C19.8811 4.83328 19.5907 4.64855 19.3525 4.36472C19.3056 3.40528 18.965 2.47964 18.4702 2.07769C18.1922 1.85194 17.8005 1.73775 17.3056 1.73775C17.2659 1.73775 17.2249 1.7407 17.1846 1.74202C15.7917 0.995859 14.3364 1.70986 14.3364 1.70986C14.4316 1.20028 14.1921 0.927281 14.3722 0.65625C11.6714 0.65625 10.5013 1.79222 10.5 1.7932C10.4993 1.79222 9.32925 0.65625 6.62845 0.65625C6.80859 0.927281 6.56873 1.20028 6.66422 1.70986C6.66422 1.70986 5.20898 0.995531 3.81609 1.74202C3.77573 1.7407 3.73439 1.73775 3.69436 1.73775C3.19987 1.73775 2.80809 1.85227 2.53017 2.07769C2.03503 2.47964 1.69444 3.40528 1.64752 4.36472C1.40962 4.64855 1.11891 4.83328 0.65625 4.85395C0.65625 4.85395 0.696938 6.11034 1.9658 6.94838C1.9658 6.94838 0.634922 8.21723 0.858375 10.9134C0.858375 10.9134 1.39519 10.2585 2.65059 10.0117C1.17206 11.2521 2.03438 13.0879 0.93975 14.3555C0.93975 14.3555 2.44584 14.6862 3.05648 14.2449C2.81728 16.1884 3.99919 16.9463 3.99919 17.8976C5.34023 17.4566 5.52792 16.1332 5.52792 16.1332C5.52792 18.5837 6.3758 18.4967 6.3758 19.7994C6.3758 19.7994 7.86319 19.5651 8.47416 18.3386C8.71697 19.4952 9.86869 19.6202 10.5 20.3438H10.5007C11.132 19.6202 12.2837 19.4952 12.5265 18.3386C13.1371 19.5651 14.6249 19.7994 14.6249 19.7994C14.6249 18.4967 15.4727 18.5837 15.4727 16.1332C15.4727 16.1332 15.6604 17.4566 17.0011 17.8976C17.0011 16.9467 18.183 16.1884 17.9438 14.2449C18.5545 14.6862 20.0606 14.3555 20.0606 14.3555C18.966 13.0879 19.8286 11.2521 18.3501 10.0117C19.6055 10.2585 20.142 10.9134 20.142 10.9134C20.3657 8.21723 19.0345 6.94838 19.0345 6.94838C20.3034 6.11034 20.3438 4.85395 20.3438 4.85395ZM3.44827 3.71109C3.00464 4.07236 2.74116 5.58928 3.65334 6.24258C3.54275 6.44214 3.43846 6.64513 3.34064 6.85125C2.62434 6.363 2.38842 5.5942 2.32116 5.00292C2.20172 3.95719 2.54691 2.90981 2.94427 2.58727C3.0998 2.46094 3.35934 2.394 3.69469 2.394C4.58358 2.394 5.72512 2.85469 6.41911 3.45614C6.06473 3.62086 5.73005 3.83512 5.41177 4.08844C4.80375 3.63169 3.82955 3.402 3.44827 3.71109ZM11.7616 17.4247C11.7922 17.0015 11.676 16.6543 11.676 16.6543C11.5723 17.2837 11.2914 17.7335 11.2914 17.7335C11.3036 17.1937 11.0286 16.9624 11.0286 16.9624C10.7723 17.6941 10.5043 17.9783 10.5043 17.9783C10.5043 17.9783 10.2368 17.6945 9.98025 16.9624C9.98025 16.9624 9.70561 17.1937 9.71775 17.7335C9.71775 17.7335 9.43688 17.2837 9.33319 16.6543C9.33319 16.6543 9.21703 17.0015 9.24722 17.4247C9.24722 17.4247 7.11703 16.0476 6.783 14.1865C7.46681 14.9546 8.96864 16.1985 10.5007 14.5878C12.0389 16.2048 13.5466 14.9448 14.2265 14.1776C13.8987 16.0433 11.7616 17.4247 11.7616 17.4247ZM9.95138 11.3971C9.786 11.174 9.61505 10.9436 9.41916 10.7992C9.31777 10.7241 9.23048 10.6614 9.15337 10.6076C9.46017 10.4803 10.0852 10.2621 10.5039 10.2621C10.922 10.2621 11.5776 10.4544 11.9096 10.565C11.8187 10.6276 11.7121 10.7031 11.5822 10.7992C11.3859 10.944 11.217 11.1753 11.0535 11.3991C10.8695 11.6504 10.6614 11.9352 10.5056 11.9352H10.5049C10.3494 11.9342 10.1377 11.6488 9.95138 11.3971ZM14.4362 13.7566L14.4293 13.7786L14.4165 13.798C14.4096 13.8085 14.364 13.8741 14.2879 13.967C13.6507 14.4283 12.138 15.2358 10.8281 14.0129V12.0871L12.0816 11.5572C12.2725 11.4693 12.429 11.2304 12.429 11.0276L12.4277 10.4606C12.4277 10.4606 11.7518 9.93431 10.5043 9.93431C9.25673 9.93431 8.57686 10.4606 8.57686 10.4606L8.57358 11.0273C8.57358 11.2301 8.73042 11.4693 8.92106 11.5569L10.1719 12.0858V14.0149C8.87283 15.2253 7.37559 14.4405 6.7305 13.9778C6.68217 13.9198 6.6363 13.8598 6.59302 13.798L6.58022 13.7786L6.57333 13.7566C6.51328 13.5696 6.44273 13.1982 6.49687 12.8346C6.55003 12.4815 6.71934 12.1505 6.80794 11.9923C6.9218 11.7889 8.57325 10.4636 8.57719 10.4606C9.11105 9.51989 9.17634 9.42769 9.63638 9.22655C9.8303 9.14222 10.166 9.09989 10.502 9.09989C10.838 9.09989 11.173 9.14222 11.3672 9.22655C11.8269 9.42736 11.8942 9.51956 12.4284 10.4603C12.4284 10.4603 14.0884 11.7885 14.2022 11.9923C14.2908 12.1505 14.4605 12.4822 14.513 12.8346C14.5671 13.1982 14.4962 13.5693 14.4362 13.7566ZM16.0558 9.40144C15.9042 10.1141 14.892 10.8301 14.4989 11.8578C14.4949 11.8502 14.492 11.8391 14.4884 11.8319C14.3929 11.6616 13.7842 11.1241 12.6774 10.2339C12.1639 9.33122 12.0497 9.16683 11.4978 8.92598C11.1782 8.78653 10.6943 8.77177 10.5013 8.77177C10.3077 8.77177 9.82406 8.78653 9.5048 8.92566C8.95059 9.16781 8.83772 9.3322 8.31961 10.2441C7.22105 11.1284 6.61631 11.6625 6.52148 11.8322C6.51722 11.8394 6.51459 11.8512 6.51066 11.8591C6.11559 10.8311 5.09611 10.1148 4.94517 9.40177C4.79095 8.6753 5.45409 7.02089 6.07852 6.67144C6.19041 6.60942 6.58547 6.67144 6.58547 6.67144C6.70228 6.51525 7.33523 4.68923 8.98669 4.38802C9.96712 4.20886 10.5043 5.04689 10.5043 5.04689C10.5043 5.04689 11.0342 4.20886 12.015 4.38802C13.6658 4.68923 14.299 6.51525 14.4162 6.67144C14.4162 6.67144 14.8109 6.60942 14.9231 6.67144C15.5469 7.02056 16.21 8.67497 16.0558 9.40144ZM18.6795 5.00325C18.6122 5.59453 18.3763 6.363 17.66 6.85125C17.5622 6.64513 17.4579 6.44213 17.3473 6.24258C18.2598 5.58928 17.996 4.07236 17.5524 3.71109C17.1711 3.40233 16.1969 3.63202 15.5895 4.08844C15.2709 3.83545 14.9366 3.62086 14.5822 3.45614C15.2755 2.85469 16.4171 2.394 17.306 2.394C17.6416 2.394 17.9012 2.46094 18.057 2.58727C18.4537 2.90981 18.7993 3.95784 18.6795 5.00325Z" fill="white"/>
</svg>
