<svg width="72" height="72" viewBox="0 0 72 72" fill="none" xmlns="http://www.w3.org/2000/svg">
<path d="M69.2572 29.1475C68.7645 28.2621 68.0164 27.7187 67.4224 27.4049C67.5135 26.2866 67.4899 24.4675 66.555 23.3571C65.7844 22.4413 64.5885 22.1804 63.162 22.6765C62.8155 21.25 62.0122 19.3814 60.1594 19.3814C59.3584 19.3814 58.527 19.7627 57.645 20.5401C57.0319 19.864 56.1139 19.1564 54.9529 19.1564C53.7547 19.1564 52.6703 19.8921 51.7309 21.3445C49.1951 25.2629 47.7574 30.0115 47.3288 35.6264C46.1765 34.7341 45.076 33.7771 44.0325 32.7599C43.317 32.0602 42.5365 31.4304 41.7015 30.8788C41.4276 30.4111 41.1579 29.9408 40.8926 29.4681C38.7022 25.5745 36.4421 21.5582 30.6709 19.6649C32.9648 18.3227 35.5568 17.7152 35.5894 17.7085L39.8295 16.7365L35.6389 15.5699C35.5343 15.5406 33.1515 14.887 29.9137 14.8161C30.6953 14.2739 31.5145 13.7882 32.3651 13.3626L36.2565 11.5086L31.9489 11.2645C31.9489 11.2645 31.7115 11.251 31.2862 11.251C27.99 11.251 17.0426 11.9901 13.2997 21.4142C11.5639 22.6956 10.1441 24.3921 9.05062 26.3811C7.38112 26.3822 4.72387 26.7456 2.25 28.6581L7.22587 31.168C7.15725 31.4481 7.074 31.7192 7.0155 32.0061L2.25 33.2717C3.58987 34.3259 5.34712 34.9525 6.61275 35.2967C6.58012 35.8334 6.5385 36.3621 6.5385 36.9122C6.5385 50.2806 13.005 58.4436 25.3339 60.913V68.4764C24.9649 68.5405 22.9556 68.3661 22.1355 68.3661C20.0959 68.3661 18.441 69.7499 18.441 69.7499H27.6649V61.3169C29.779 61.5932 31.9093 61.7282 34.0414 61.7207C34.4183 61.7207 34.785 61.705 35.1551 61.6949V68.4752C34.7873 68.5394 32.7757 68.365 31.9568 68.365C29.9171 68.365 28.2634 69.7487 28.2634 69.7487H37.4861V61.5464C53.5804 59.9252 61.9886 47.2375 61.9886 42.6542C61.9886 41.977 61.8266 41.4145 61.5128 40.9847C61.354 40.7698 61.1533 40.5893 60.9228 40.4542C60.6923 40.319 60.4368 40.232 60.1717 40.1984C61.2326 39.4772 62.3272 38.8315 63.3848 38.2206C66.2591 36.5635 68.7431 35.1314 69.4912 32.6901C69.903 31.3592 69.8209 30.1679 69.2572 29.1475ZM55.161 42.6205C53.2215 44.6174 48.7552 48.4041 42.7365 48.4041C40.2097 48.4041 37.629 47.7359 35.0685 46.4219C30.7058 44.1831 28.6628 40.5336 29.6021 36.6591C30.3784 33.4641 33.03 31.2321 36.0506 31.2321C38.1802 31.2321 40.4044 32.3054 42.4856 34.3382C47.673 39.403 52.6466 41.6991 55.161 42.6205ZM58.3144 46.6412C54.8392 52.5779 46.3995 59.5124 34.0414 59.5124C17.2598 59.5124 8.75137 51.9074 8.75137 36.9111C8.75137 30.8012 10.9766 25.7365 14.8545 23.0196L15.1346 22.8216L15.255 22.4999C17.5376 16.3641 23.4664 14.3672 27.6502 13.7361C27.0562 14.2007 26.4544 14.725 25.8997 15.3044L23.7645 17.5296L26.8324 17.164C28.1728 17.013 29.5239 16.9807 30.87 17.0672C29.6764 17.6376 28.4242 18.3846 27.3949 19.333L25.8379 20.7685L27.9101 21.2207C28.2386 21.2927 28.566 21.3647 28.9013 21.4491C34.0605 22.7609 36.2745 25.8659 38.2624 29.314C37.5404 29.1262 36.7978 29.029 36.0518 29.0249C32.0063 29.0249 28.4704 31.951 27.4511 36.1405C26.5275 39.9464 27.7774 45.1607 34.056 48.3861C36.9349 49.8632 39.8542 50.6125 42.7376 50.6125C51.9975 50.6125 57.7586 43.0626 57.9971 42.742L58.2964 42.3426C58.77 42.3606 59.2537 42.3707 59.7566 42.373C59.8522 42.805 59.6936 44.2832 58.3144 46.6412ZM67.3774 32.0443C66.8835 33.6553 64.7483 34.885 62.2778 36.3104C60.5036 37.3341 58.5349 38.5097 56.754 40.0386C55.7866 39.9639 54.8235 39.8407 53.8684 39.6696C52.3325 38.9448 50.8538 38.1046 49.4449 37.1564C49.7048 31.3097 51.0626 26.4576 53.5916 22.5415C54.0765 21.7934 54.5715 21.3647 54.9551 21.3647C55.566 21.3647 56.3029 22.33 56.5436 22.7676L57.303 24.1727L58.3537 22.969C59.499 21.6561 60.0604 21.5897 60.1616 21.5897C60.5666 21.5897 61.1032 23.0241 61.2056 24.3797L61.3361 26.1527L62.8695 25.2505C63.7808 24.715 64.2892 24.6351 64.5109 24.6351C64.7246 24.6351 64.7977 24.7015 64.8607 24.7746C65.322 25.3202 65.2961 26.9672 65.1308 27.9055L64.971 28.8865L65.9261 29.1599C65.9363 29.1621 66.9037 29.4479 67.3279 30.2286C67.5844 30.7034 67.6024 31.3142 67.3774 32.0443Z" fill="white"/>
<path d="M16.3701 31.4146C17.9234 31.4146 19.1826 30.1554 19.1826 28.6021C19.1826 27.0487 17.9234 25.7896 16.3701 25.7896C14.8168 25.7896 13.5576 27.0487 13.5576 28.6021C13.5576 30.1554 14.8168 31.4146 16.3701 31.4146Z" fill="white"/>
</svg>
