<svg width="21" height="21" viewBox="0 0 21 21" fill="none" xmlns="http://www.w3.org/2000/svg">
<path d="M10.5 1.75C8.76942 1.75 7.07769 2.26318 5.63876 3.22464C4.19983 4.1861 3.07832 5.55267 2.41606 7.15152C1.75379 8.75037 1.58051 10.5097 1.91813 12.207C2.25575 13.9044 3.08911 15.4635 4.31282 16.6872C5.53653 17.9109 7.09563 18.7443 8.79296 19.0819C10.4903 19.4195 12.2496 19.2462 13.8485 18.5839C15.4473 17.9217 16.8139 16.8002 17.7754 15.3612C18.7368 13.9223 19.25 12.2306 19.25 10.5C19.25 9.35093 19.0237 8.21312 18.584 7.15152C18.1442 6.08992 17.4997 5.12533 16.6872 4.31282C15.8747 3.5003 14.9101 2.85578 13.8485 2.41605C12.7869 1.97633 11.6491 1.75 10.5 1.75ZM10.5 15.75C10.3269 15.75 10.1578 15.6987 10.0139 15.6025C9.86999 15.5064 9.75784 15.3697 9.69161 15.2098C9.62538 15.05 9.60806 14.874 9.64182 14.7043C9.67558 14.5346 9.75891 14.3787 9.88129 14.2563C10.0037 14.1339 10.1596 14.0506 10.3293 14.0168C10.499 13.9831 10.675 14.0004 10.8349 14.0666C10.9947 14.1328 11.1314 14.245 11.2275 14.3889C11.3237 14.5328 11.375 14.7019 11.375 14.875C11.375 15.1071 11.2828 15.3296 11.1187 15.4937C10.9546 15.6578 10.7321 15.75 10.5 15.75ZM11.375 11.235V12.25C11.375 12.4821 11.2828 12.7046 11.1187 12.8687C10.9546 13.0328 10.7321 13.125 10.5 13.125C10.2679 13.125 10.0454 13.0328 9.88129 12.8687C9.71719 12.7046 9.625 12.4821 9.625 12.25V10.5C9.625 10.2679 9.71719 10.0454 9.88129 9.88128C10.0454 9.71719 10.2679 9.625 10.5 9.625C10.7596 9.625 11.0134 9.54802 11.2292 9.4038C11.445 9.25959 11.6133 9.0546 11.7126 8.81477C11.8119 8.57494 11.8379 8.31104 11.7873 8.05644C11.7366 7.80184 11.6116 7.56798 11.4281 7.38442C11.2445 7.20087 11.0107 7.07586 10.7561 7.02522C10.5015 6.97458 10.2376 7.00057 9.99773 7.09991C9.7579 7.19925 9.55292 7.36748 9.4087 7.58331C9.26448 7.79915 9.1875 8.05291 9.1875 8.3125C9.1875 8.54456 9.09532 8.76712 8.93122 8.93122C8.76713 9.09531 8.54457 9.1875 8.3125 9.1875C8.08044 9.1875 7.85788 9.09531 7.69379 8.93122C7.52969 8.76712 7.4375 8.54456 7.4375 8.3125C7.43521 7.74401 7.59121 7.18611 7.88801 6.70125C8.18482 6.21639 8.61072 5.82372 9.11804 5.56719C9.62536 5.31066 10.1941 5.20041 10.7605 5.24877C11.3269 5.29713 11.8687 5.5022 12.3252 5.84102C12.7817 6.17984 13.1349 6.63903 13.3452 7.16718C13.5555 7.69534 13.6147 8.27161 13.516 8.83148C13.4174 9.39135 13.1649 9.91272 12.7868 10.3372C12.4086 10.7617 11.9198 11.0726 11.375 11.235Z" fill="white"/>
</svg>
