<svg width="17" height="17" viewBox="0 0 17 17" fill="none" xmlns="http://www.w3.org/2000/svg">
<g clip-path="url(#clip0_27_67)">
<path d="M8.50025 7.43749C5.86359 7.43749 2.12525 11.5135 2.12525 14.0864C2.12525 15.2452 3.01543 15.9375 4.50725 15.9375C6.12889 15.9375 7.19969 15.1048 8.50025 15.1048C9.81211 15.1048 10.8859 15.9375 12.4933 15.9375C13.9851 15.9375 14.8753 15.2452 14.8753 14.0864C14.8753 11.5135 11.1369 7.43749 8.50025 7.43749ZM3.6101 7.0188C3.26479 5.86831 2.20096 5.12323 1.23408 5.35433C0.267208 5.58542 -0.236483 6.70536 0.108829 7.85585C0.454141 9.00634 1.51797 9.75142 2.48484 9.52032C3.45172 9.28923 3.95541 8.16929 3.6101 7.0188ZM6.42307 6.32884C7.45037 6.05856 7.96436 4.67067 7.57123 3.22899C7.17811 1.78731 6.02662 0.838037 4.99932 1.10831C3.97201 1.37858 3.45803 2.76647 3.85115 4.20815C4.24428 5.64983 5.39609 6.59944 6.42307 6.32884ZM15.7661 5.35466C14.7992 5.12356 13.7357 5.86864 13.3901 7.01913C13.0448 8.16962 13.5485 9.28956 14.5153 9.52065C15.4822 9.75175 16.5457 9.00667 16.8913 7.85618C17.2367 6.70569 16.733 5.58575 15.7661 5.35466ZM10.5774 6.32884C11.6047 6.59911 12.7562 5.64983 13.1494 4.20815C13.5425 2.76647 13.0285 1.37892 12.0012 1.10831C10.9739 0.837705 9.8224 1.78731 9.42928 3.22899C9.03615 4.67067 9.55014 6.05856 10.5774 6.32884Z" fill="white"/>
</g>
<defs>
<clipPath id="clip0_27_67">
<rect width="17" height="17" fill="white"/>
</clipPath>
</defs>
</svg>
