<svg width="33" height="33" viewBox="0 0 33 33" fill="none" xmlns="http://www.w3.org/2000/svg">
<path d="M16.4997 14.4375C11.384 14.4375 4.18269 22.3459 4.18269 27.341C4.12597 29.5904 5.84945 30.9375 8.75241 30.9375C11.8977 30.9375 13.9796 29.3197 16.4997 29.3197C19.0456 29.3197 21.1339 30.9375 24.2469 30.9375C27.0893 30.9375 28.8708 29.5917 28.8708 27.3442C28.8167 22.3523 21.6173 14.4375 16.4997 14.4375ZM7.01218 13.6254C6.3438 11.394 4.27292 9.94383 2.39605 10.395C0.519171 10.8462 -0.458196 13.0195 0.210441 15.2496C0.87882 17.4861 2.9497 18.9363 4.82657 18.4852C6.70345 18.034 7.67605 15.8555 7.01218 13.6254ZM12.4714 12.2848C14.461 11.7611 15.4601 9.12012 14.695 6.26678C13.9299 3.41344 11.6979 1.68417 9.70052 2.15016C7.71085 2.67384 6.71183 5.31481 7.47689 8.16815C8.24324 10.9635 10.4733 12.8133 12.4714 12.2848ZM30.6085 10.3963C28.7316 10.0031 26.6607 11.3953 25.9923 13.6267C25.324 15.8587 26.2985 18.0333 28.1754 18.4845C30.0522 18.8777 32.1147 17.4855 32.7915 15.2541C33.4573 13.0195 32.426 10.8475 30.6085 10.3963ZM20.528 12.2848C22.468 12.8085 24.7574 10.9635 25.5225 8.16815C26.2875 5.37282 25.2888 2.67352 23.2988 2.15016C21.3588 1.62648 19.0694 3.47145 18.3044 6.26678C17.5374 9.06211 18.5364 11.7627 20.528 12.2848Z" fill="white"/>
</svg>
