<svg width="38" height="38" viewBox="0 0 38 38" fill="none" xmlns="http://www.w3.org/2000/svg">
<g clip-path="url(#clip0_202_541)">
<path d="M25.2889 0.000296458C24.8584 -0.00860979 24.3516 0.182355 23.7974 0.681625C20.3029 5.45448 21.9394 9.0414 23.8477 15.1613C25.9196 21.8057 24.0963 26.37 16.569 24.2251L17.6184 27.5665C26.7359 28.9208 28.5613 22.3873 27.3344 16.7404C25.6574 9.02055 23.2677 7.1345 26.5955 2.17943C26.9885 1.3516 26.3887 0.0231558 25.2888 0.000370677L25.2889 0.000296458ZM28.3274 3.38727C27.7206 3.74211 27.5081 4.22876 27.4869 5.30709C29.937 7.3366 32.0199 10.2049 33.6585 12.2249C33.0522 12.5818 32.2932 12.9114 31.4609 12.8106C30.6848 11.7349 28.6186 9.31861 27.0875 7.85954C27.2123 9.18398 27.5782 10.1689 27.6893 11.3161C30.09 13.9798 30.2175 15.3369 30.2175 15.3369C33.3146 15.4922 35.9271 14.1568 37.6703 12.6051C38.6105 11.8074 37.2951 9.64495 35.6171 11.1292C33.3503 8.34709 31.005 5.662 28.3274 3.38727ZM18.1593 10.0959C13.3043 10.0412 9.83703 13.7026 10.0767 18.4624C10.4559 22.6292 12.3596 25.3582 12.6648 28.7241L10.5802 26.3971C9.76501 26.3088 9.05044 26.1985 8.17066 26.6785L12.5663 31.2764C12.4475 31.9827 12.2478 32.728 11.9457 33.5265C10.2255 31.8928 8.20062 29.4421 5.97988 27.0688C4.69644 27.3504 3.98998 28.0686 3.97684 28.0901L10.9855 35.5561C9.16857 37.5436 12.3 38.8924 13.7229 37.2952C18.6188 31.6582 14.8464 24.9838 13.2431 18.5684L16.8117 22.4041C18.0697 23.086 19.7534 23.0661 20.3775 22.6888L13.5266 15.6477C13.8806 14.8667 14.2539 14.672 15.107 14.2554L21.7895 21.1385C22.2126 20.3529 22.8421 19.6031 22.0446 17.9248L17.6948 13.1669C18.4378 12.921 20.0838 13.4323 21.3733 13.8307L20.3181 10.3546C19.5747 10.1874 18.8528 10.1038 18.1593 10.096V10.0959ZM7.41562 22.2696C4.00463 22.2346 2.13106 23.6214 0.523272 25.0194C-0.916372 26.2795 0.899893 28.5794 2.52916 27.3987C4.57162 25.5979 6.29289 24.6474 9.55758 24.8781L8.97527 22.3758C8.42149 22.3087 7.90286 22.2747 7.41562 22.2697V22.2696Z" fill="white"/>
</g>
<defs>
<clipPath id="clip0_202_541">
<rect width="38" height="38" fill="white"/>
</clipPath>
</defs>
</svg>
