<svg width="59" height="59" viewBox="0 0 59 59" fill="none" xmlns="http://www.w3.org/2000/svg">
<path d="M13.4228 55.3125H43.0813C46.2452 55.3125 48.808 52.746 48.808 49.5821V25.4954C53.9963 25.1229 57.0533 19.3151 54.2471 14.7832L52.643 12.1946C52.0136 11.1776 51.1348 10.3382 50.09 9.75609C49.0452 9.17399 47.869 8.86845 46.673 8.86844H42.3365V7.08738C42.337 6.64107 42.2495 6.19905 42.079 5.78658C41.9086 5.37411 41.6585 4.99928 41.3431 4.68352C41.0276 4.36777 40.6531 4.11728 40.2408 3.94637C39.8285 3.77547 39.3866 3.6875 38.9403 3.6875C36.8024 3.6875 34.7521 4.53677 33.2404 6.04848C31.7287 7.56018 30.8794 9.6105 30.8794 11.7484V22.5749C26.8379 23.0284 23.7625 24.9791 21.5058 27.6931C18.9688 30.739 17.4864 34.6957 16.6014 38.4754C15.8409 41.8851 15.4087 45.3599 15.3108 48.852C15.2739 49.9287 15.2739 50.8727 15.2813 51.625H13.4265C12.2464 51.6251 11.0919 51.2804 10.1051 50.6332C9.11833 49.986 8.34215 49.0646 7.87204 47.9822C7.40193 46.8997 7.25838 45.7035 7.45904 44.5406C7.6597 43.3777 8.19582 42.2987 9.00148 41.4364L11.9404 38.2836C14.0103 36.0637 15.1379 33.1272 15.0856 30.0924C15.0334 27.0577 13.8053 24.1616 11.6602 22.0144L8.77654 19.1271C8.60646 18.951 8.40301 18.8105 8.17807 18.7139C7.95312 18.6172 7.71119 18.5664 7.46637 18.5643C7.22156 18.5621 6.97878 18.6088 6.75219 18.7015C6.5256 18.7942 6.31974 18.9311 6.14663 19.1042C5.97351 19.2773 5.83661 19.4832 5.7439 19.7098C5.6512 19.9364 5.60455 20.1791 5.60667 20.424C5.6088 20.6688 5.65966 20.9107 5.75629 21.1357C5.85292 21.3606 5.99338 21.564 6.16948 21.7341L9.05679 24.6214C10.5272 26.0924 11.3691 28.0768 11.4049 30.1564C11.4406 32.2359 10.6675 34.2481 9.24854 35.7687L6.30592 38.9216C5.01232 40.3095 4.15198 42.0449 3.83044 43.9148C3.50889 45.7846 3.74013 47.7077 4.49578 49.448C5.25143 51.1884 6.49864 52.6703 8.08439 53.7121C9.67014 54.7538 11.5255 55.31 13.4228 55.3125ZM38.649 7.38606V10.7122C38.649 11.2012 38.8432 11.6701 39.189 12.0159C39.5348 12.3617 40.0037 12.5559 40.4927 12.5559H46.673C47.8272 12.5559 48.9002 13.1533 49.5123 14.1379L51.1164 16.7265C51.431 17.2322 51.6045 17.8129 51.6189 18.4083C51.6333 19.0037 51.4881 19.5921 51.1984 20.1125C50.9087 20.6329 50.485 21.0662 49.9713 21.3676C49.4576 21.6689 48.8726 21.8273 48.277 21.8263H46.968C46.479 21.8263 46.01 22.0206 45.6642 22.3663C45.3185 22.7121 45.1242 23.1811 45.1242 23.6701V49.5821C45.1242 50.1239 44.909 50.6435 44.5259 51.0267C44.1428 51.4098 43.6232 51.625 43.0813 51.625H41.0422V49.5821C41.0426 48.3194 40.7943 47.0689 40.3115 45.9021C39.8286 44.7354 39.1205 43.6752 38.2278 42.7821C37.3351 41.889 36.2751 41.1806 35.1086 40.6972C33.942 40.2139 32.6916 39.9651 31.4289 39.9651H28.1912C27.7022 39.9651 27.2333 40.1594 26.8875 40.5051C26.5417 40.8509 26.3475 41.3199 26.3475 41.8089C26.3475 42.2979 26.5417 42.7668 26.8875 43.1126C27.2333 43.4584 27.7022 43.6526 28.1912 43.6526H31.4289C34.6997 43.6526 37.3547 46.3076 37.3547 49.5821V51.625H18.9688C18.9577 50.9133 18.9614 50.0136 18.9946 48.9737C19.0831 46.3113 19.3818 42.7971 20.193 39.3124C21.0117 35.8019 22.3207 32.4721 24.3378 30.0531C26.2959 27.7005 28.9472 26.1628 32.7232 26.1628C33.2122 26.1628 33.6811 25.9686 34.0269 25.6228C34.3727 25.277 34.5669 24.8081 34.5669 24.3191V11.7484C34.5669 9.43263 36.3701 7.53356 38.649 7.38606Z" fill="white"/>
</svg>
