<svg width="57" height="57" viewBox="0 0 57 57" fill="none" xmlns="http://www.w3.org/2000/svg">
<path d="M33.8439 7.125C33.3715 7.125 32.9184 7.31267 32.5844 7.64672C32.2503 7.98077 32.0627 8.43383 32.0627 8.90625V12.4688C32.0627 12.9412 32.2503 13.3942 32.5844 13.7283C32.9184 14.0623 33.3715 14.25 33.8439 14.25C34.3163 14.25 34.7694 14.0623 35.1035 13.7283C35.4375 13.3942 35.6252 12.9412 35.6252 12.4688C35.6252 11.9963 35.8128 11.5433 36.1469 11.2092C36.4809 10.8752 36.934 10.6875 37.4064 10.6875C37.8788 10.6875 38.3319 10.8752 38.666 11.2092C39 11.5433 39.1877 11.9963 39.1877 12.4688C39.1881 13.3497 38.9707 14.2171 38.5548 14.9937C38.139 15.7703 37.5376 16.432 36.8041 16.92C36.0707 17.408 35.228 17.7072 34.3511 17.7908C33.4741 17.8744 32.5901 17.7399 31.7777 17.3992C31.463 20.2192 30.7319 22.9769 29.6081 25.5823C28.1439 28.9275 26.2202 31.3144 24.4852 33.2488C23.2455 34.6346 22.4439 36.6225 21.9701 38.988C21.4963 41.3393 21.3752 43.9078 21.3752 46.3125C21.3752 47.3919 20.9833 48.6958 20.2708 49.875H35.3224C34.9516 48.8341 34.2683 47.9332 33.366 47.2955C32.4637 46.6579 31.3863 46.3145 30.2814 46.3125H28.5002C28.0277 46.3125 27.5747 46.1248 27.2406 45.7908C26.9066 45.4567 26.7189 45.0037 26.7189 44.5312C26.7189 44.0588 26.9066 43.6058 27.2406 43.2717C27.5747 42.9377 28.0277 42.75 28.5002 42.75H30.2814C30.8906 42.75 31.4855 42.8106 32.0627 42.9281V37.4062C32.0627 36.9338 32.2503 36.4808 32.5844 36.1467C32.9184 35.8127 33.3715 35.625 33.8439 35.625C34.3163 35.625 34.7694 35.8127 35.1035 36.1467C35.4375 36.4808 35.6252 36.9338 35.6252 37.4062V44.5312C37.3352 45.8138 38.5678 47.7019 39.0095 49.875H46.0099C45.6413 48.8327 44.9586 47.9303 44.0558 47.2923C43.153 46.6542 42.0745 46.3119 40.9689 46.3125C40.4965 46.3125 40.0434 46.1248 39.7094 45.7908C39.3753 45.4567 39.1877 45.0037 39.1877 44.5312V19.5938C39.1877 19.1213 39.3753 18.6683 39.7094 18.3342C40.0434 18.0002 40.4965 17.8125 40.9689 17.8125H44.5314C45.0038 17.8125 45.4569 17.6248 45.791 17.2908C46.125 16.9567 46.3127 16.5037 46.3127 16.0312V12.7039C46.3127 12.396 46.233 12.0934 46.0813 11.8256C45.9296 11.5577 45.711 11.3338 45.447 11.1756L39.1164 7.37794C38.8397 7.21231 38.5233 7.12489 38.2009 7.125H33.8439ZM14.2502 49.875C15.3688 49.875 16.2309 49.3335 16.8686 48.5391C17.5455 47.6876 17.8127 46.7329 17.8127 46.3125C17.8127 43.8187 17.9374 40.9794 18.4753 38.2862C19.0132 35.6143 19.9965 32.9246 21.8276 30.8762C23.4557 29.0593 25.098 26.9931 26.352 24.1466C27.5953 21.3073 28.5002 17.5916 28.5002 12.4688V8.90625C28.5002 7.489 29.0632 6.1298 30.0653 5.12765C31.0675 4.1255 32.4267 3.5625 33.8439 3.5625H38.2009C39.1698 3.56259 40.1204 3.82612 40.9511 4.32487L47.2817 8.1225C48.0727 8.59731 48.7272 9.26881 49.1817 10.0717C49.6362 10.8745 49.8751 11.7813 49.8752 12.7039V16.0312C49.8752 17.4485 49.3122 18.8077 48.31 19.8099C47.3079 20.812 45.9487 21.375 44.5314 21.375H42.7502V42.9281C44.7618 43.3388 46.5699 44.4318 47.8682 46.0223C49.1666 47.6128 49.8756 49.6031 49.8752 51.6562C49.8752 52.1287 49.6875 52.5817 49.3535 52.9158C49.0194 53.2498 48.5663 53.4375 48.0939 53.4375H13.3595C11.2573 53.4382 9.21051 52.7626 7.52173 51.5105C5.83295 50.2584 4.59172 48.4963 3.98144 46.4846C3.37116 44.4728 3.42421 42.3181 4.13274 40.3388C4.84127 38.3595 6.1677 36.6606 7.91604 35.4932C8.1103 35.3583 8.32949 35.2634 8.56082 35.2141C8.79215 35.1647 9.03099 35.162 9.26339 35.206C9.49579 35.25 9.71711 35.3398 9.91442 35.4702C10.1117 35.6006 10.2811 35.7691 10.4126 35.9656C10.5442 36.1622 10.6352 36.383 10.6805 36.6152C10.7258 36.8473 10.7244 37.0862 10.6763 37.3178C10.6283 37.5494 10.5347 37.7691 10.4008 37.9641C10.267 38.1591 10.0956 38.3255 9.89679 38.4536C8.78328 39.1961 7.93827 40.2772 7.48669 41.5371C7.03512 42.7969 7.00096 44.1687 7.38927 45.4495C7.77758 46.7302 8.56774 47.8521 9.64291 48.6491C10.7181 49.446 12.0212 49.8759 13.3595 49.875H14.2502Z" fill="white"/>
</svg>
