<svg width="22" height="22" viewBox="0 0 22 22" fill="none" xmlns="http://www.w3.org/2000/svg">
<path fill-rule="evenodd" clip-rule="evenodd" d="M12.9695 9.22029L10.7708 11.4194V14.4971C12.023 14.3298 13.0932 14.0699 14.4375 13.2921C15.4174 15.0883 16.2383 15.6044 16.6595 15.8698C16.8291 15.9766 16.9345 16.0426 16.9583 16.1352C17.0133 16.346 17.0711 16.5005 17.116 16.621C17.254 16.989 17.2741 17.0427 16.7292 17.4171H18.3333V15.3441C18.3333 14.438 16.9583 12.0216 16.9583 12.0216L19.0208 14.6667C19.2065 14.7826 19.4572 14.5599 19.25 14.2083C19.1634 13.9773 19.069 13.6748 18.9617 13.332C18.4511 11.6971 17.6568 9.15384 16.0962 9.15384C15.8702 9.15384 15.5453 9.16575 15.163 9.17904C14.5273 9.20196 13.7326 9.23038 12.9695 9.22029ZM9.85417 14.6043V11.6875H6.22692C6.59679 12.491 7.03954 13.0726 7.38283 13.5236C7.447 13.6075 7.50658 13.6863 7.5625 13.7619C7.79167 14.0708 8.47917 16.1347 7.33333 17.0839C8.75738 17.0839 9.08875 17.5702 9.1575 17.5358C9.18867 17.5203 9.16667 17.3997 9.16667 17.0839V14.6781L9.59429 14.6323L9.85417 14.6043ZM5.87675 10.7708H10.1228L11.7347 9.15888C11.719 9.15738 11.7032 9.15585 11.6875 9.15429C9.81933 8.95492 8.61987 8.23992 7.79167 6.00967C7.02763 3.95267 4.58333 4.8125 4.58333 6.48404C4.02737 6.68113 2.75 7.11654 2.75 7.11654C2.75 7.11654 2.97917 8.33021 3.4375 8.9375C3.685 9.11809 4.50817 9.15384 5.04167 9.15384C5.23004 9.15384 5.39917 9.15017 5.55133 9.14238C5.61367 9.75425 5.72917 10.2933 5.87675 10.7708Z" fill="white"/>
<path d="M6.8754 17.4167C6.8754 17.2951 6.92368 17.1785 7.00964 17.0926C7.09559 17.0066 7.21217 16.9583 7.33373 16.9583H8.70873C8.83029 16.9583 8.94687 17.0066 9.03282 17.0926C9.11877 17.1785 9.16706 17.2951 9.16706 17.4167C9.16706 17.5382 9.11877 17.6548 9.03282 17.7408C8.94687 17.8267 8.83029 17.875 8.70873 17.875H7.33373C7.21217 17.875 7.09559 17.8267 7.00964 17.7408C6.92368 17.6548 6.8754 17.5382 6.8754 17.4167ZM16.5004 17.4167C16.5004 17.2951 16.5487 17.1785 16.6346 17.0926C16.7206 17.0066 16.8372 16.9583 16.9587 16.9583H17.8754C17.997 16.9583 18.1135 17.0066 18.1995 17.0926C18.2854 17.1785 18.3337 17.2951 18.3337 17.4167C18.3337 17.5382 18.2854 17.6548 18.1995 17.7408C18.1135 17.8267 17.997 17.875 17.8754 17.875H16.9587C16.8372 17.875 16.7206 17.8267 16.6346 17.7408C16.5487 17.6548 16.5004 17.5382 16.5004 17.4167ZM8.23848 5.64254C8.77931 5.97438 8.9301 7.66013 8.70873 8.02083C8.48735 8.38154 7.97769 7.28017 7.43685 6.94833C6.89602 6.6165 6.63706 6.05504 6.85844 5.69433C7.07981 5.33408 7.69719 5.31071 8.23802 5.64254H8.23848Z" fill="white"/>
<path fill-rule="evenodd" clip-rule="evenodd" d="M17.7404 4.44904C17.8238 4.3626 17.87 4.24683 17.869 4.12665C17.868 4.00648 17.8198 3.89152 17.7348 3.80654C17.6498 3.72157 17.5348 3.67336 17.4147 3.67232C17.2945 3.67128 17.1787 3.71747 17.0923 3.80096L11.7266 9.16667H13.0227L17.7404 4.44904Z" fill="white"/>
</svg>
