<svg width="63" height="63" viewBox="0 0 63 63" fill="none" xmlns="http://www.w3.org/2000/svg">
<path d="M19.6875 15.9344C23.1625 14.1477 27.1968 13.125 31.5 13.125C35.8032 13.125 39.8375 14.1477 43.3125 15.9344M55.125 34.125C55.125 45.723 44.5477 55.125 31.5 55.125C18.4523 55.125 7.875 45.723 7.875 34.125H55.125Z" stroke="white" stroke-width="4" stroke-linecap="round"/>
<path d="M7.875 34.1252V11.1409C7.875 8.86877 10.5657 7.66975 12.2552 9.189L19.6875 15.8723" stroke="white" stroke-width="4" stroke-linecap="round" stroke-linejoin="round"/>
<path d="M55.125 34.1252V11.1409C55.125 8.86877 52.4342 7.66975 50.7448 9.189L43.3125 15.8723" stroke="white" stroke-width="4" stroke-linecap="round" stroke-linejoin="round"/>
<path d="M39.375 31.5C40.8247 31.5 42 30.3247 42 28.875C42 27.4253 40.8247 26.25 39.375 26.25C37.9253 26.25 36.75 27.4253 36.75 28.875C36.75 30.3247 37.9253 31.5 39.375 31.5Z" fill="white"/>
<path d="M23.625 31.5C25.0747 31.5 26.25 30.3247 26.25 28.875C26.25 27.4253 25.0747 26.25 23.625 26.25C22.1753 26.25 21 27.4253 21 28.875C21 30.3247 22.1753 31.5 23.625 31.5Z" fill="white"/>
<path d="M31.5 39.375C32.9497 39.375 34.125 38.1997 34.125 36.75C34.125 35.3003 32.9497 34.125 31.5 34.125C30.0503 34.125 28.875 35.3003 28.875 36.75C28.875 38.1997 30.0503 39.375 31.5 39.375Z" fill="white"/>
<path d="M21 39.375L5.25 40.6875" stroke="white" stroke-width="4" stroke-linecap="round" stroke-linejoin="round"/>
<path d="M24.9375 45.9375L9.1875 53.8125" stroke="white" stroke-width="4" stroke-linecap="round" stroke-linejoin="round"/>
<path d="M42 39.375L57.75 40.6875" stroke="white" stroke-width="4" stroke-linecap="round" stroke-linejoin="round"/>
<path d="M38.0625 45.9375L53.8125 53.8125" stroke="white" stroke-width="4" stroke-linecap="round" stroke-linejoin="round"/>
</svg>
