<svg width="62" height="62" viewBox="0 0 62 62" fill="none" xmlns="http://www.w3.org/2000/svg">
<path d="M43.917 36.1665C43.297 35.5465 42.7803 34.8748 42.2378 34.229C45.2087 29.7082 49.0837 22.1132 49.0837 12.9165C49.0837 7.879 47.172 5.1665 43.917 5.1665C39.9387 5.1665 33.687 10.4882 31.0003 20.589C28.3137 10.4882 22.062 5.1665 18.0837 5.1665C14.8287 5.1665 12.917 7.879 12.917 12.9165C12.917 22.1132 16.792 29.7082 19.7628 34.229C19.2203 34.8748 18.7037 35.5465 18.0837 36.1665C17.4378 36.8123 12.917 39.7573 12.917 45.2082C12.917 51.6665 18.0837 56.8332 24.542 56.8332C28.417 56.8332 31.0003 55.5415 31.0003 55.5415C31.0003 55.5415 33.5837 56.8332 37.4587 56.8332C43.917 56.8332 49.0837 51.6665 49.0837 45.2082C49.0837 39.7573 44.5628 36.8123 43.917 36.1665ZM43.607 10.4107C43.762 10.8498 43.917 11.6248 43.917 12.9165C43.917 20.2532 41.0495 26.4532 38.5695 30.4315C37.5878 29.7082 36.4253 29.1915 34.9528 28.8298C35.5728 17.1532 41.2562 11.1857 43.607 10.4107ZM18.0837 12.9165C18.0837 11.6248 18.2387 10.8498 18.3937 10.4107C20.7445 11.1857 26.4278 17.1532 27.1253 28.8298C25.5753 29.1915 24.4128 29.7082 23.457 30.4315C20.9512 26.4532 18.0837 20.2532 18.0837 12.9165ZM37.4587 51.6665C34.8753 51.6665 32.8087 50.814 31.7237 50.2198C32.8087 49.7548 33.5837 48.3857 33.5837 47.7915C33.5837 47.0682 32.4212 46.4998 31.0003 46.4998C29.5795 46.4998 28.417 47.0682 28.417 47.7915C28.417 48.3857 29.192 49.7548 30.277 50.2198C29.192 50.814 27.1253 51.6665 24.542 51.6665C22.8291 51.6665 21.1864 50.9861 19.9753 49.7749C18.7641 48.5637 18.0837 46.921 18.0837 45.2082C18.0837 43.3998 19.1945 42.0048 20.667 40.739C21.8037 39.809 22.2428 39.3957 24.0253 37.1998C25.9887 34.7457 26.8412 33.5832 31.0003 33.5832C35.1595 33.5832 36.012 34.7457 37.9753 37.1998C39.7578 39.3957 40.197 39.809 41.3337 40.739C42.8062 42.0048 43.917 43.3998 43.917 45.2082C43.917 46.921 43.2366 48.5637 42.0254 49.7749C40.8142 50.9861 39.1715 51.6665 37.4587 51.6665ZM36.167 41.3332C36.167 42.3923 35.5987 43.2707 34.8753 43.2707C34.152 43.2707 33.5837 42.3923 33.5837 41.3332C33.5837 40.274 34.152 39.3957 34.8753 39.3957C35.5987 39.3957 36.167 40.274 36.167 41.3332ZM28.417 41.3332C28.417 42.3923 27.8487 43.2707 27.1253 43.2707C26.402 43.2707 25.8337 42.3923 25.8337 41.3332C25.8337 40.274 26.402 39.3957 27.1253 39.3957C27.8487 39.3957 28.417 40.274 28.417 41.3332Z" fill="white"/>
</svg>
