<svg width="69" height="69" viewBox="0 0 69 69" fill="none" xmlns="http://www.w3.org/2000/svg">
<path d="M56.0625 60.3748H43.125C41.9813 60.3748 40.8844 59.9204 40.0756 59.1117C39.2669 58.3029 38.8125 57.206 38.8125 56.0623V43.1248H30.1875V56.0623C30.1875 57.206 29.7331 58.3029 28.9244 59.1117C28.1156 59.9204 27.0187 60.3748 25.875 60.3748H12.9375C11.7938 60.3748 10.6969 59.9204 9.8881 59.1117C9.07935 58.3029 8.625 57.206 8.625 56.0623V31.1307C8.62519 30.5323 8.7499 29.9405 8.99119 29.393C9.23248 28.8454 9.58508 28.3541 10.0266 27.9502L31.5891 8.35527C32.3841 7.62796 33.4225 7.22461 34.5 7.22461C35.5775 7.22461 36.6159 7.62796 37.4109 8.35527L58.9734 27.9502C59.4149 28.3541 59.7675 28.8454 60.0088 29.393C60.2501 29.9405 60.3748 30.5323 60.375 31.1307V56.0623C60.375 57.206 59.9206 58.3029 59.1119 59.1117C58.3031 59.9204 57.2062 60.3748 56.0625 60.3748ZM30.1875 38.8123H38.8125C39.9562 38.8123 41.0531 39.2667 41.8619 40.0754C42.6706 40.8842 43.125 41.9811 43.125 43.1248V56.0623H56.0625V31.1307L34.5 11.5357L12.9375 31.1307V56.0623H25.875V43.1248C25.875 41.9811 26.3294 40.8842 27.1381 40.0754C27.9469 39.2667 29.0438 38.8123 30.1875 38.8123Z" fill="white"/>
</svg>
